<svg xmlns="http://www.w3.org/2000/svg" xmlns:xlink="http://www.w3.org/1999/xlink" width="1080" zoomAndPan="magnify" viewBox="0 0 810 809.999993" height="1080" preserveAspectRatio="xMidYMid meet" version="1.0"><defs><g/></defs><g fill="#ffffff" fill-opacity="1"><g transform="translate(150.138423, 695.061048)"><g><path d="M 261.90625 5.796875 C 219.351562 5.796875 181.222656 -1.109375 147.515625 -14.921875 C 113.816406 -28.734375 86.882812 -49.175781 66.71875 -76.25 C 46.550781 -103.320312 35.914062 -135.921875 34.8125 -174.046875 L 185.65625 -174.046875 C 187.863281 -152.492188 195.320312 -136.054688 208.03125 -124.734375 C 220.738281 -113.410156 237.3125 -107.75 257.75 -107.75 C 278.75 -107.75 295.328125 -112.582031 307.484375 -122.25 C 319.640625 -131.914062 325.71875 -145.3125 325.71875 -162.4375 C 325.71875 -176.8125 320.878906 -188.691406 311.203125 -198.078125 C 301.535156 -207.472656 289.65625 -215.207031 275.5625 -221.28125 C 261.476562 -227.363281 241.453125 -234.273438 215.484375 -242.015625 C 177.910156 -253.609375 147.242188 -265.207031 123.484375 -276.8125 C 99.734375 -288.414062 79.289062 -305.546875 62.15625 -328.203125 C 45.03125 -350.859375 36.46875 -380.421875 36.46875 -416.890625 C 36.46875 -471.035156 56.082031 -513.441406 95.3125 -544.109375 C 134.539062 -574.773438 185.648438 -590.109375 248.640625 -590.109375 C 312.734375 -590.109375 364.394531 -574.773438 403.625 -544.109375 C 442.851562 -513.441406 463.847656 -470.757812 466.609375 -416.0625 L 313.28125 -416.0625 C 312.175781 -434.84375 305.269531 -449.617188 292.5625 -460.390625 C 279.851562 -471.171875 263.554688 -476.5625 243.671875 -476.5625 C 226.535156 -476.5625 212.71875 -472 202.21875 -462.875 C 191.726562 -453.757812 186.484375 -440.640625 186.484375 -423.515625 C 186.484375 -404.734375 195.320312 -390.09375 213 -379.59375 C 230.675781 -369.09375 258.300781 -357.765625 295.875 -345.609375 C 333.445312 -332.898438 363.972656 -320.742188 387.453125 -309.140625 C 410.941406 -297.535156 431.25 -280.679688 448.375 -258.578125 C 465.507812 -236.484375 474.078125 -208.03125 474.078125 -173.21875 C 474.078125 -140.0625 465.648438 -109.945312 448.796875 -82.875 C 431.941406 -55.800781 407.488281 -34.253906 375.4375 -18.234375 C 343.394531 -2.210938 305.550781 5.796875 261.90625 5.796875 Z M 261.90625 5.796875 "/></g></g></g></svg>