<svg xmlns="http://www.w3.org/2000/svg" xmlns:xlink="http://www.w3.org/1999/xlink" width="1080" zoomAndPan="magnify" viewBox="0 0 810 809.999993" height="1080" preserveAspectRatio="xMidYMid meet" version="1.0"><defs><g/></defs><g fill="#ffffff" fill-opacity="1"><g transform="translate(131.899319, 695.061048)"><g><path d="M 403.625 -298.359375 C 437.332031 -291.179688 464.40625 -274.46875 484.84375 -248.21875 C 505.289062 -221.976562 515.515625 -192.003906 515.515625 -158.296875 C 515.515625 -109.671875 498.519531 -71.128906 464.53125 -42.671875 C 430.550781 -14.222656 383.175781 0 322.40625 0 L 51.390625 0 L 51.390625 -581.8125 L 313.28125 -581.8125 C 372.40625 -581.8125 418.679688 -568.273438 452.109375 -541.203125 C 485.535156 -514.128906 502.25 -477.382812 502.25 -430.96875 C 502.25 -396.71875 493.269531 -368.265625 475.3125 -345.609375 C 457.351562 -322.953125 433.457031 -307.203125 403.625 -298.359375 Z M 193.109375 -346.4375 L 285.9375 -346.4375 C 309.144531 -346.4375 326.960938 -351.546875 339.390625 -361.765625 C 351.828125 -371.992188 358.046875 -387.050781 358.046875 -406.9375 C 358.046875 -426.832031 351.828125 -442.023438 339.390625 -452.515625 C 326.960938 -463.015625 309.144531 -468.265625 285.9375 -468.265625 L 193.109375 -468.265625 Z M 297.53125 -114.375 C 321.289062 -114.375 339.660156 -119.757812 352.640625 -130.53125 C 365.628906 -141.3125 372.125 -156.921875 372.125 -177.359375 C 372.125 -197.804688 365.351562 -213.832031 351.8125 -225.4375 C 338.28125 -237.039062 319.632812 -242.84375 295.875 -242.84375 L 193.109375 -242.84375 L 193.109375 -114.375 Z M 297.53125 -114.375 "/></g></g></g></svg>