<svg xmlns="http://www.w3.org/2000/svg" xmlns:xlink="http://www.w3.org/1999/xlink" width="1080" zoomAndPan="magnify" viewBox="0 0 810 809.999993" height="1080" preserveAspectRatio="xMidYMid meet" version="1.0"><defs><g/></defs><g fill="#ffffff" fill-opacity="1"><g transform="translate(134.808206, 695.061048)"><g><path d="M 348.09375 0 L 227.09375 -219.625 L 193.109375 -219.625 L 193.109375 0 L 51.390625 0 L 51.390625 -581.8125 L 289.25 -581.8125 C 335.113281 -581.8125 374.207031 -573.800781 406.53125 -557.78125 C 438.851562 -541.757812 463.023438 -519.796875 479.046875 -491.890625 C 495.066406 -463.984375 503.078125 -432.90625 503.078125 -398.65625 C 503.078125 -359.976562 492.164062 -325.441406 470.34375 -295.046875 C 448.519531 -264.660156 416.332031 -243.113281 373.78125 -230.40625 L 508.046875 0 Z M 193.109375 -319.921875 L 280.96875 -319.921875 C 306.9375 -319.921875 326.410156 -326.273438 339.390625 -338.984375 C 352.378906 -351.691406 358.875 -369.644531 358.875 -392.84375 C 358.875 -414.945312 352.378906 -432.351562 339.390625 -445.0625 C 326.410156 -457.769531 306.9375 -464.125 280.96875 -464.125 L 193.109375 -464.125 Z M 193.109375 -319.921875 "/></g></g></g></svg>