<?xml version="1.0" ?><!DOCTYPE svg  PUBLIC '-//W3C//DTD SVG 1.1//EN'  'http://www.w3.org/Graphics/SVG/1.1/DTD/svg11.dtd'><svg xmlns="http://www.w3.org/2000/svg" xmlns:xlink="http://www.w3.org/1999/xlink" version="1.1" id="Layer_1" width="512px" height="512px" viewBox="0 0 512 512" enable-background="new 0 0 512 512" xml:space="preserve"><g><path fill="#CCCCCD" d="M416.265,133.63v295.72c0,31.15-25.49,56.65-56.65,56.65h-207.23c-31.16,0-56.65-25.5-56.65-56.65V82.651   c0-31.16,25.49-56.65,56.65-56.65h156.24v107.63H416.265z"/><polygon fill="#DEDEDF" points="416.265,133.63 308.625,133.63 308.625,26  "/><rect x="149.52" y="215.676" fill="#58BB6A" width="212.961" height="188.278"/><path fill="#33A851" d="M361.37,202.709H150.631c-6.904,0-12.5,5.597-12.5,12.5V404.42c0,6.903,5.596,12.5,12.5,12.5H361.37   c6.903,0,12.5-5.597,12.5-12.5V215.209C373.87,208.306,368.273,202.709,361.37,202.709z M163.131,290.78h45.246v38.07h-45.246   V290.78z M233.377,290.78H348.87v38.07H233.377V290.78z M348.87,265.78H233.377v-38.07H348.87V265.78z M208.377,227.709v38.07   h-45.246v-38.07H208.377z M163.131,353.85h45.246v38.07h-45.246V353.85z M233.377,391.92v-38.07H348.87v38.07H233.377z"/></g></svg>